<?xml version="1.0" encoding="UTF-8" standalone="no"?>
<!-- Created with Inkscape (http://www.inkscape.org/) -->

<svg
   xmlns:dc="http://purl.org/dc/elements/1.1/"
   xmlns:cc="http://creativecommons.org/ns#"
   xmlns:rdf="http://www.w3.org/1999/02/22-rdf-syntax-ns#"
   xmlns:svg="http://www.w3.org/2000/svg"
   xmlns="http://www.w3.org/2000/svg"
   xmlns:sodipodi="http://sodipodi.sourceforge.net/DTD/sodipodi-0.dtd"
   xmlns:inkscape="http://www.inkscape.org/namespaces/inkscape"
   id="svg6489"
   version="1.1"
   inkscape:version="0.91 r13725"
   width="364.20001"
   height="363.60001"
   viewBox="0 0 364.20001 363.60001"
   sodipodi:docname="blog.svg">
  <metadata
     id="metadata6495">
    <rdf:RDF>
      <cc:Work
         rdf:about="">
        <dc:format>image/svg+xml</dc:format>
        <dc:type
           rdf:resource="http://purl.org/dc/dcmitype/StillImage" />
        <dc:title />
      </cc:Work>
    </rdf:RDF>
  </metadata>
  <defs
     id="defs6493" />
  <sodipodi:namedview
     pagecolor="#ffffff"
     bordercolor="#666666"
     borderopacity="1"
     objecttolerance="10"
     gridtolerance="10"
     guidetolerance="10"
     inkscape:pageopacity="0"
     inkscape:pageshadow="2"
     inkscape:window-width="1366"
     inkscape:window-height="749"
     id="namedview6491"
     showgrid="false"
     inkscape:zoom="1.1162796"
     inkscape:cx="231.79362"
     inkscape:cy="162.00735"
     inkscape:window-x="-4"
     inkscape:window-y="-4"
     inkscape:window-maximized="1"
     inkscape:current-layer="svg6489"
     showguides="false" />
  <path
     style="fill:#ffffff;fill-opacity:1"
     d="M 182.00391 0.5 A 182.00322 181.54982 0 0 0 0 182.05078 A 182.00322 181.54982 0 0 0 182.00391 363.59961 A 182.00322 181.54982 0 0 0 364.00586 182.05078 A 182.00322 181.54982 0 0 0 182.00391 0.5 z M 211.78711 92.058594 C 243.75417 92.070309 258.4202 92.199996 259.69922 92.464844 C 264.53381 93.465874 268.42134 97.343555 269.72461 102.46289 L 270.29883 104.71289 L 273.53711 105.00586 C 278.67198 105.46906 281.99969 107.71395 284.43164 112.35547 L 285.52344 114.43945 L 285.52344 185.06836 C 285.52344 258.37385 285.51971 258.50631 283.64844 264.2793 C 282.78284 266.94993 280.61029 269.59247 278.31836 270.76172 C 276.55562 271.661 275.2138 271.67312 187.93555 271.64062 C 104.39397 271.60953 99.178471 271.56156 96.457031 270.7832 C 86.909221 268.05229 80.500246 261.85935 78.785156 253.70508 C 78.094766 250.4227 78.059577 110.72113 78.748047 106.33398 C 79.721007 100.13393 83.472181 94.958488 88.369141 93.054688 C 90.440811 92.249278 94.475105 92.203388 173.9082 92.085938 C 188.55336 92.064288 201.13142 92.054689 211.78711 92.058594 z M 174.60156 103.55664 C 84.706855 103.55664 89.956354 103.39813 88.146484 106.16016 C 87.337154 107.39528 87.295897 110.59037 87.179688 178.91797 C 87.061148 248.62056 87.079586 250.42636 87.947266 252.11328 C 89.604856 255.33597 92.366311 257.34476 97.363281 258.96289 L 100.73242 260.05469 L 181.67383 260.07422 L 262.61523 260.0957 L 262.35938 259.05469 C 261.12989 254.04347 261.05057 250.02351 260.77539 179.04688 C 260.61788 138.41822 260.44366 105.11379 260.38672 105.03711 C 260.32982 104.96041 259.55913 104.59565 258.67578 104.22656 C 257.29367 103.64908 245.56809 103.55664 174.60156 103.55664 z M 136.95898 111.00391 C 154.23547 110.94755 155.42771 111.30789 157.94922 113.58594 C 161.41946 116.72109 161.40234 116.57875 161.40234 142.92188 C 161.40234 168.70664 161.42525 168.47475 158.51562 171.69531 C 155.67869 174.83546 155.22759 174.885 129.70898 174.83984 C 117.33736 174.81794 106.69315 174.63952 106.05469 174.44531 C 101.84648 173.16524 99.507133 170.24395 98.658203 165.21094 C 98.302323 163.10106 98.182429 155.29979 98.287109 141.04688 C 98.422899 122.55739 98.536176 119.75389 99.228516 117.99805 C 100.39413 115.04194 101.73567 113.38385 103.89648 112.22852 C 105.80425 111.20847 106.07934 111.19498 128.51953 111.04883 C 131.69491 111.02815 134.49091 111.01196 136.95898 111.00391 z M 216.28516 111.875 C 232.89467 111.875 249.50352 112.03967 250.11914 112.36914 C 251.49662 113.10635 252.4082 115.31459 252.4082 117.91211 C 252.4082 120.50963 251.49662 122.71982 250.11914 123.45703 C 248.89621 124.11152 183.48447 124.08891 182.35938 123.43359 C 179.39384 121.70633 179.45661 113.97076 182.44922 112.36914 C 183.06484 112.03967 199.67564 111.875 216.28516 111.875 z M 269.97656 115.92969 L 270.11914 185.11914 C 270.24706 247.12425 270.33936 254.56428 271.00781 256.79297 C 271.41804 258.16074 272.02725 259.44977 272.36133 259.65625 C 273.13388 260.13372 274.50099 259.41535 274.83008 258.35938 C 275.8676 255.03019 276.01104 246.08777 276.01953 184.56055 C 276.02853 120.78936 275.99521 118.02568 275.18555 117.29297 C 274.72116 116.8727 273.35823 116.393 272.1582 116.22852 L 269.97656 115.92969 z M 216.28516 137.82812 C 252.16722 137.82812 250.19717 137.67269 251.7168 140.61133 C 252.60513 142.32918 252.60513 145.83098 251.7168 147.54883 C 250.19717 150.48748 252.16722 150.33203 216.28516 150.33203 C 187.42397 150.33203 183.48765 150.24779 182.57617 149.60938 C 181.05759 148.54572 180.16016 146.49188 180.16016 144.08008 C 180.16016 142.90851 180.47093 141.3474 180.85156 140.61133 C 182.37119 137.67269 180.4031 137.82812 216.28516 137.82812 z M 216.28516 164.20898 C 232.89467 164.20898 249.50352 164.37365 250.11914 164.70312 C 251.49662 165.44033 252.4082 167.65053 252.4082 170.24805 C 252.4082 172.84557 251.49662 175.05381 250.11914 175.79102 C 248.89621 176.4455 183.48447 176.42289 182.35938 175.76758 C 179.39384 174.04033 179.45661 166.30474 182.44922 164.70312 C 183.06484 164.37365 199.67564 164.20898 216.28516 164.20898 z M 142.97461 188.86328 C 152.03442 188.85839 162.45866 188.86542 174.16992 188.88477 L 246.83008 189.00391 L 248.03125 190.20508 C 250.3746 192.54842 250.45656 197.1963 248.20508 200.05859 L 247.24805 201.27734 L 173.75781 201.26367 C 124.7017 201.25467 100.00001 201.09245 99.458984 200.77734 C 96.110104 198.82679 96.717119 190.58687 100.31055 189.2207 C 100.8903 189.00029 115.79517 188.87796 142.97461 188.86328 z M 129.95508 213.78125 C 161.81272 213.78125 160.45986 213.64484 161.80859 217.01562 C 162.73087 219.32063 162.76217 221.20063 161.91406 223.23047 C 160.5677 226.45275 162.31669 226.28711 129.75977 226.28711 L 100.4082 226.28711 L 99.126953 224.91406 C 97.910833 223.61221 97.257812 221.77899 97.257812 219.66016 C 97.257812 218.0482 99.059347 214.88027 100.29688 214.31641 C 101.14235 213.9312 109.42093 213.78125 129.95508 213.78125 z M 213.39844 214.70898 L 246.42969 214.70898 L 247.53516 215.8125 C 250.4342 218.71154 249.83033 225.20332 246.52148 226.71094 C 245.76179 227.05708 235.29306 227.21289 212.89258 227.21289 C 185.07127 227.21289 180.22526 227.11563 179.39648 226.53516 C 177.16205 224.9701 176.29321 220.80616 177.56445 217.76367 C 178.91849 214.52299 176.75293 214.70898 213.39844 214.70898 z M 100.42969 240.18164 L 129.77148 240.18164 C 162.31715 240.18164 160.56773 240.0141 161.91406 243.23633 C 162.76217 245.26616 162.73087 247.14617 161.80859 249.45117 C 160.45926 252.82347 161.83541 252.68555 129.73633 252.68555 L 101.03516 252.68555 L 99.640625 251.51172 C 96.824485 249.1421 96.557584 244.05179 99.115234 241.49414 L 100.42969 240.18164 z M 213.57422 240.64453 L 246.01758 240.64453 L 247.51953 242.14844 C 250.07189 244.70505 250.08005 249.50005 247.53516 252.04492 L 246.42969 253.14844 L 213.14453 253.14844 L 179.85742 253.14844 L 178.88281 252.10742 C 175.96142 248.98881 176.55127 242.73051 179.91211 241.19922 C 180.81984 240.78562 189.37059 240.64453 213.57422 240.64453 z "
     id="path4726" />
</svg>
