<?xml version="1.0" encoding="UTF-8" standalone="no"?>
<!-- Created with Inkscape (http://www.inkscape.org/) -->

<svg
   xmlns:dc="http://purl.org/dc/elements/1.1/"
   xmlns:cc="http://creativecommons.org/ns#"
   xmlns:rdf="http://www.w3.org/1999/02/22-rdf-syntax-ns#"
   xmlns:svg="http://www.w3.org/2000/svg"
   xmlns="http://www.w3.org/2000/svg"
   xmlns:sodipodi="http://sodipodi.sourceforge.net/DTD/sodipodi-0.dtd"
   xmlns:inkscape="http://www.inkscape.org/namespaces/inkscape"
   id="svg6489"
   version="1.1"
   inkscape:version="0.91 r13725"
   width="364.20001"
   height="363.60001"
   viewBox="0 0 364.20001 363.60001"
   sodipodi:docname="blog2.svg">
  <metadata
     id="metadata6495">
    <rdf:RDF>
      <cc:Work
         rdf:about="">
        <dc:format>image/svg+xml</dc:format>
        <dc:type
           rdf:resource="http://purl.org/dc/dcmitype/StillImage" />
        <dc:title />
      </cc:Work>
    </rdf:RDF>
  </metadata>
  <defs
     id="defs6493" />
  <sodipodi:namedview
     pagecolor="#ffffff"
     bordercolor="#666666"
     borderopacity="1"
     objecttolerance="10"
     gridtolerance="10"
     guidetolerance="10"
     inkscape:pageopacity="0"
     inkscape:pageshadow="2"
     inkscape:window-width="1366"
     inkscape:window-height="749"
     id="namedview6491"
     showgrid="false"
     inkscape:zoom="0.78932888"
     inkscape:cx="281.23695"
     inkscape:cy="167.509"
     inkscape:window-x="-4"
     inkscape:window-y="-4"
     inkscape:window-maximized="1"
     inkscape:current-layer="svg6489"
     showguides="false" />
  <path
     style="fill:#ffffff;fill-opacity:1"
     d="M 150.93068,361.83331 C 78.983371,348.16556 23.618959,295.55124 5.5014794,223.62797 c -5.78597253,-22.96936 -5.78597253,-60.8543 0,-83.82365 C 22.620499,71.844706 72.497186,21.428288 139.58462,4.2702068 c 19.81687,-5.06829407 65.69191,-5.06829407 85.50876,0 C 292.1808,21.428288 342.0575,71.844706 359.17652,139.80432 c 5.78598,22.96935 5.78598,60.85429 0,83.82365 -17.13342,68.01673 -66.45795,117.86513 -134.24861,135.67447 -18.71488,4.91661 -54.92017,6.15491 -73.99723,2.53087 z M 270.06811,258.85504 c 6.03945,-12.20552 7.61328,-14.03391 13.42779,-15.59959 6.68919,-1.80121 12.48515,-6.83759 16.22468,-14.09834 1.3393,-2.60044 2.06732,-17.67865 2.06732,-42.81722 0,-43.05526 -0.82023,-46.83918 -11.57469,-53.39654 -5.19584,-3.16809 -9.36939,-3.58802 -35.72079,-3.59409 l -29.83758,-0.007 -2.53128,-6.05824 c -3.23252,-7.73655 -12.48351,-15.53808 -20.08364,-16.93693 -3.25509,-0.59913 -31.70156,-0.83877 -63.2144,-0.53255 -54.539206,0.52999 -57.540072,0.73909 -62.367424,4.34568 -12.447487,9.29972 -12.594781,9.91291 -13.205036,54.97446 -0.441807,32.6247 -0.01029,42.35154 2.10211,47.40775 2.927843,7.00728 12.3535,15.08973 19.748984,16.93462 3.665735,0.91447 6.193626,4.21247 11.026051,14.38507 6.016305,12.66469 6.530075,13.19858 12.701775,13.19858 6.11733,0 6.77325,-0.65151 13.41288,-13.32315 l 6.98102,-13.32314 10.99757,0 c 10.026,0 11.5418,0.54422 17.15764,6.16003 3.388,3.38803 8.83901,6.69585 12.11333,7.35071 3.27431,0.65487 21.38072,1.19066 40.23644,1.19066 l 34.28314,0 6.81981,13.78256 c 4.00496,8.0939 7.96994,13.78257 9.60638,13.78257 1.63723,0 5.60842,-5.70274 9.62792,-13.82603 z M 103.37363,227.79273 c -3.65605,-9.0079 -4.698759,-10.08502 -10.780067,-11.13572 -15.273538,-2.63893 -16.839738,-7.18712 -16.839738,-48.90209 0,-37.90853 1.423082,-43.97792 11.102604,-47.35221 7.811958,-2.72328 106.028961,-2.87646 113.130521,-0.17645 2.76291,1.05046 6.06199,3.32458 7.33128,5.05361 2.13612,2.90981 0.61995,3.21204 -20.38083,4.06253 -20.99887,0.8504 -23.0591,1.26098 -27.6629,5.51302 -8.93142,8.24893 -10.01366,13.60495 -10.01366,49.55822 l 0,33.13717 -14.72136,0 -14.72137,0 -4.95705,10.10722 c -2.72637,5.55896 -5.51567,10.10721 -6.19846,10.10721 -0.68278,0 -3.06282,-4.48762 -5.28897,-9.97251 z m 71.61467,-13.91727 c 0,-3.58625 1.22512,-3.67534 50.53606,-3.67534 49.31096,0 50.53608,0.0891 50.53608,3.67534 0,3.58627 -1.22512,3.67535 -50.53608,3.67535 -49.31094,0 -50.53606,-0.0891 -50.53606,-3.67535 z m 0,-19.29558 c 0,-2.38342 6.84024,-2.75652 50.53606,-2.75652 43.69586,0 50.53608,0.3731 50.53608,2.75652 0,2.3834 -6.84022,2.7565 -50.53608,2.7565 -43.69582,0 -50.53606,-0.3731 -50.53606,-2.7565 z m 0,-19.2956 c 0,-3.58624 1.22512,-3.67536 50.53606,-3.67536 49.31096,0 50.53608,0.0891 50.53608,3.67536 0,3.58627 -1.22512,3.67535 -50.53608,3.67535 -49.31094,0 -50.53606,-0.089 -50.53606,-3.67535 z m 0,-18.37675 c 0,-3.58625 1.22512,-3.67536 50.53606,-3.67536 49.31096,0 50.53608,0.0891 50.53608,3.67536 0,3.58626 -1.22512,3.67534 -50.53608,3.67534 -49.31094,0 -50.53606,-0.089 -50.53606,-3.67534 z"
     id="path4150"
     inkscape:connector-curvature="0" />
</svg>
