<?xml version="1.0" encoding="UTF-8" standalone="no"?>
<!-- Created with Inkscape (http://www.inkscape.org/) -->

<svg
   xmlns:dc="http://purl.org/dc/elements/1.1/"
   xmlns:cc="http://creativecommons.org/ns#"
   xmlns:rdf="http://www.w3.org/1999/02/22-rdf-syntax-ns#"
   xmlns:svg="http://www.w3.org/2000/svg"
   xmlns="http://www.w3.org/2000/svg"
   xmlns:sodipodi="http://sodipodi.sourceforge.net/DTD/sodipodi-0.dtd"
   xmlns:inkscape="http://www.inkscape.org/namespaces/inkscape"
   id="svg7075"
   version="1.1"
   inkscape:version="0.91 r13725"
   width="640"
   height="640"
   viewBox="0 0 640 640"
   sodipodi:docname="soundcloud.svg">
  <metadata
     id="metadata7081">
    <rdf:RDF>
      <cc:Work
         rdf:about="">
        <dc:format>image/svg+xml</dc:format>
        <dc:type
           rdf:resource="http://purl.org/dc/dcmitype/StillImage" />
        <dc:title></dc:title>
      </cc:Work>
    </rdf:RDF>
  </metadata>
  <defs
     id="defs7079" />
  <sodipodi:namedview
     pagecolor="#ffffff"
     bordercolor="#666666"
     borderopacity="1"
     objecttolerance="10"
     gridtolerance="10"
     guidetolerance="10"
     inkscape:pageopacity="0"
     inkscape:pageshadow="2"
     inkscape:window-width="1366"
     inkscape:window-height="749"
     id="namedview7077"
     showgrid="false"
     inkscape:zoom="0.896875"
     inkscape:cx="376.87911"
     inkscape:cy="320"
     inkscape:window-x="-4"
     inkscape:window-y="-4"
     inkscape:window-maximized="1"
     inkscape:current-layer="svg7075" />
  <path
     style="fill:#ffffff;fill-opacity:1"
     d="m 297.57244,639.07762 c -14.63291,-0.96597 -40.37978,-5.33029 -57.54172,-9.75383 C 134.94868,602.23865 50.682618,523.7307 16.635775,421.19396 4.8454549,385.68581 0.1959967,356.9194 0.1959967,319.48034 c 0,-37.43905 4.6494582,-66.20547 16.4397783,-101.71361 C 46.829725,126.83354 117.6296,53.380166 207.42025,19.831867 268.0712,-2.8290192 335.8176,-6.6873164 397.95454,8.9805557 456.52483,23.749087 507.10364,53.227474 549.96685,97.57652 c 46.7833,48.40499 73.227,100.89636 86.36436,171.43524 2.12089,11.38764 2.74753,22.89851 2.74753,50.46858 0,37.9579 -1.1805,48.0918 -9.40649,80.74974 -9.9606,39.54449 -30.06089,80.61656 -56.23735,114.9131 -11.12942,14.58182 -38.35145,41.98437 -54.79427,55.15763 -61.0724,48.92851 -141.70942,74.0156 -221.06819,68.77681 z m -134.32409,-293.97476 0,-49.69215 -7.7644,0 -7.7644,0 0,49.69215 0,49.69215 7.7644,0 7.7644,0 0,-49.69215 z m 26.39895,-5.43508 c 0,-30.31998 -0.31187,-55.12723 -0.69302,-55.12723 -0.38116,0 -2.21399,4.17143 -4.07296,9.26982 -2.93943,8.06169 -3.74654,9.07363 -6.19286,7.7644 -1.54708,-0.82797 -3.20823,-1.50542 -3.69142,-1.50542 -0.4832,0 -0.87853,21.31327 -0.87853,47.36283 l 0,47.36283 7.76439,0 7.7644,0 0,-55.12723 z m 27.95184,-13.97592 c 0,-38.00673 -0.59831,-69.10314 -1.32958,-69.10314 -0.73127,0 -4.57465,2.4778 -8.54084,5.50622 l -7.21126,5.50621 0,63.59694 0,63.59692 8.54084,0 8.54084,0 0,-69.10315 z m 26.39895,-5.27 0,-74.37317 -6.46439,1.45245 c -3.55542,0.79885 -7.0494,1.81402 -7.7644,2.2559 -0.71501,0.44191 -1.30001,33.25622 -1.30001,72.92072 l 0,72.11725 7.7644,0 7.7644,0 0,-74.37315 z m 27.95183,0.79248 0,-73.58067 -3.49398,-0.93633 c -1.92168,-0.515 -5.41566,-0.94592 -7.7644,-0.95757 l -4.27041,-0.0212 0,74.53823 0,74.53822 7.76439,0 7.7644,0 0,-73.58067 z m 27.89599,-2.89866 -0.0559,-76.47932 -3.81864,4.65864 c -2.10024,2.56225 -3.8221,5.25849 -3.82634,5.99166 -0.005,0.73314 -1.75471,0.89453 -3.88992,0.35863 l -3.8822,-0.97437 0,71.46204 0,71.46205 7.7644,0 7.7644,0 -0.0559,-76.47933 z m 28.00768,-10.48193 c 0,-47.8287 -0.46291,-86.96126 -1.0287,-86.96126 -0.5658,0 -4.40918,2.16923 -8.54084,4.82053 l -7.51214,4.82051 0,82.14075 0,82.14073 8.54084,0 8.54084,0 0,-86.96126 z m 177.25804,82.07285 c 11.19583,-5.24899 20.72692,-14.79618 25.89568,-25.93942 3.30263,-7.12008 4.07512,-11.10847 4.10481,-21.19364 0.0312,-10.59493 -0.6237,-13.76989 -4.4503,-21.57571 -2.46778,-5.03397 -7.25274,-11.91854 -10.63323,-15.29903 -13.89351,-13.89352 -37.83182,-18.80366 -55.58715,-11.40182 -1.93277,0.80574 -2.74158,-1.02564 -4.19163,-9.49096 -5.43426,-31.725 -30.96497,-60.13341 -64.06952,-71.29123 -10.59786,-3.57198 -38.96858,-4.02127 -50.08037,-0.79311 l -7.37617,2.14291 0,89.91934 0,89.91932 78.80864,-0.44234 78.80864,-0.44234 8.7706,-4.11197 z M 136.16958,298.87192 c -0.39973,-0.39974 -3.03077,0.61844 -5.84678,2.26258 l -5.12,2.98938 -0.4139,40.62665 -0.41391,40.62666 5.84899,3.00137 5.84898,3.00138 0.41168,-45.89064 c 0.22644,-25.23986 0.0846,-46.21767 -0.31506,-46.61738 z m -21.0605,46.13929 c 0,-16.74333 -0.59607,-29.22796 -1.37256,-28.74807 -0.7549,0.46656 -2.99048,4.17649 -4.96797,8.24427 -2.89058,5.94612 -3.59853,9.98353 -3.61133,20.59545 -0.014,11.36116 0.5737,14.3349 4.21769,21.35209 2.3285,4.48395 4.57124,8.15262 4.98389,8.15262 0.41266,0 0.75028,-13.31837 0.75028,-29.59636 z"
     id="path7088"
     inkscape:connector-curvature="0" />
</svg>
