<?xml version="1.0" encoding="UTF-8" standalone="no"?>
<!-- Created with Inkscape (http://www.inkscape.org/) -->

<svg
   xmlns:dc="http://purl.org/dc/elements/1.1/"
   xmlns:cc="http://creativecommons.org/ns#"
   xmlns:rdf="http://www.w3.org/1999/02/22-rdf-syntax-ns#"
   xmlns:svg="http://www.w3.org/2000/svg"
   xmlns="http://www.w3.org/2000/svg"
   xmlns:sodipodi="http://sodipodi.sourceforge.net/DTD/sodipodi-0.dtd"
   xmlns:inkscape="http://www.inkscape.org/namespaces/inkscape"
   id="svg6489"
   version="1.1"
   inkscape:version="0.91 r13725"
   width="364.20001"
   height="363.60001"
   viewBox="0 0 364.20001 363.60001"
   sodipodi:docname="youtube.svg">
  <metadata
     id="metadata6495">
    <rdf:RDF>
      <cc:Work
         rdf:about="">
        <dc:format>image/svg+xml</dc:format>
        <dc:type
           rdf:resource="http://purl.org/dc/dcmitype/StillImage" />
        <dc:title></dc:title>
      </cc:Work>
    </rdf:RDF>
  </metadata>
  <defs
     id="defs6493" />
  <sodipodi:namedview
     pagecolor="#ffffff"
     bordercolor="#666666"
     borderopacity="1"
     objecttolerance="10"
     gridtolerance="10"
     guidetolerance="10"
     inkscape:pageopacity="0"
     inkscape:pageshadow="2"
     inkscape:window-width="1366"
     inkscape:window-height="749"
     id="namedview6491"
     showgrid="false"
     inkscape:zoom="1.5786578"
     inkscape:cx="182.10001"
     inkscape:cy="181.8"
     inkscape:window-x="-4"
     inkscape:window-y="-4"
     inkscape:window-maximized="1"
     inkscape:current-layer="svg6489" />
  <g
     id="g6499"
     transform="translate(3.698705e-6,4.2107197e-6)"
     style="fill-opacity:1;fill:#ffffff">
    <path
       style="fill-opacity:1;fill:#ffffff"
       d="M 168.3,363.24559 C 154.30283,361.86834 142.65758,359.76758 131.97392,356.6925 69.046898,338.58021 20.688503,288.31677 5.1441536,224.86639 1.2376691,208.92054 0.3710358,201.10117 0.3710358,181.8 c 0,-19.30116 0.8666333,-27.12053 4.7731178,-43.06638 C 20.546848,75.861458 69.110774,25.071919 130.87757,7.2380354 149.03519,1.9953961 161.258,0.3523092 182.1,0.3523092 c 17.79617,0 24.60554,0.6728194 39.35345,3.8884287 C 288.13924,18.780788 341.19746,69.9863 358.49808,136.5 c 4.27865,16.44965 5.38935,25.78561 5.38935,45.3 0,23.23083 -2.05094,36.3496 -8.96471,57.34235 -8.8899,26.99302 -23.1887,50.11141 -43.80102,70.81777 -24.12396,24.23402 -52.73322,40.43165 -85.65531,48.49527 -14.26937,3.49501 -23.39165,4.5932 -40.06638,4.8234 -8.08501,0.11162 -15.78001,0.0967 -17.10001,-0.0332 z m 77.9147,-112.46595 c 15.76971,-0.8883 17.78044,-1.47086 22.58531,-6.54357 3.68592,-3.89139 5.96859,-9.1014 8.29649,-18.93606 2.60793,-11.01777 2.78396,-13.48367 2.78396,-39 0,-25.98152 -0.16153,-28.10306 -3.03774,-39.90001 -2.27334,-9.32419 -3.66827,-12.74299 -6.77058,-16.59384 -3.83177,-4.75632 -7.2601,-6.76632 -12.70751,-7.45032 -8.63167,-1.08384 -39.37315,-1.75483 -76.46463,-1.669 -38.89012,0.09 -59.99779,0.64648 -67.00642,1.76659 -15.620123,2.49638 -21.977819,20.98272 -22.060835,64.14658 -0.03048,15.85941 0.60597,27.35724 1.760328,31.8 0.300102,1.155 1.112376,4.8 1.805046,8.1 1.710714,8.15011 3.86493,13.21963 7.011421,16.5 1.42439,1.485 2.58996,2.91744 2.59014,3.18319 1.8e-4,0.26576 1.50321,1.17124 3.34007,2.01218 4.01684,1.83897 9.8379,2.41885 31.76025,3.16392 18.65165,0.63391 91.64963,0.23515 106.1147,-0.57966 z M 166.2,186.00001 c 0,-27.44305 0.15856,-34.7988 0.75,-34.79431 0.4125,0.003 2.44836,1.08314 4.52412,2.4 2.07576,1.31687 4.00438,2.3943 4.28581,2.3943 0.28142,0 0.65078,0.36248 0.82078,0.80549 0.17001,0.44302 1.34639,1.29471 2.6142,1.89263 1.2678,0.59793 5.43366,3.20546 9.25747,5.79451 3.82381,2.58906 7.13007,4.70737 7.34726,4.70737 0.21719,0 5.18862,3.19383 11.04763,7.09739 5.85901,3.90357 11.39524,7.55479 12.30274,8.11383 0.9075,0.55905 1.65,1.40331 1.65,1.87615 0,0.47284 -1.89,1.96352 -4.2,3.31264 -2.31,1.34911 -4.2,2.71102 -4.2,3.02646 0,0.31545 -0.32789,0.57354 -0.72863,0.57354 -0.40075,0 -4.11325,2.25339 -8.25,5.00752 -4.13676,2.75415 -8.19637,5.35557 -9.02137,5.78096 -0.825,0.42538 -5.685,3.52535 -10.8,6.88882 -11.51271,7.57041 -15.43366,9.9227 -16.53988,9.9227 -0.73695,0 -0.86013,-4.98356 -0.86013,-34.8 z"
       id="path6511"
       inkscape:connector-curvature="0" />
    <path
       style="fill-opacity:1;fill:#ffffff"
       d="M 168.9,363.24621 C 140.82011,360.47596 121.6601,355.04162 98.801493,343.36423 49.449404,318.15255 13.955292,271.00291 3.3737528,216.60001 0.97929879,204.28939 0.31842775,196.7696 0.31538087,181.8 0.31190309,164.71332 1.4123447,154.66024 4.9128298,139.8 16.947424,88.71083 51.856719,44.231173 98.705139,20.294583 118.42629,10.218318 136.33224,4.6174998 159.06742,1.4138154 c 10.4206,-1.46839893 35.64457,-1.46839893 46.06517,0 21.95259,3.0934075 39.39314,8.4483087 58.39908,17.9306926 54.28253,27.082491 90.69642,78.100025 99.25118,139.055492 1.4769,10.52332 1.47876,36.25365 0.004,46.80001 -8.2825,59.20422 -42.99084,109.28322 -94.88644,136.90678 -20.25622,10.78221 -38.65516,16.71958 -62.1,20.0398 -5.98496,0.84758 -31.69024,1.6136 -36.90001,1.09962 z m 77.70001,-112.46022 c 10.34837,-0.60885 15.43397,-1.37599 18.06254,-2.72464 0.8594,-0.44094 2.90483,-2.27038 4.5454,-4.06543 3.05367,-3.3412 6.15541,-10.20735 7.09053,-15.69591 0.2249,-1.32 0.65596,-2.69913 0.95791,-3.06472 0.30195,-0.3656 1.00072,-3.6056 1.55283,-7.2 1.52298,-9.91514 1.5323,-52.72909 0.0137,-63.06886 -0.59239,-4.03347 -1.46822,-8.08347 -1.9463,-9 -0.47809,-0.91653 -0.87091,-2.24178 -0.87294,-2.94499 -0.005,-1.7153 -2.74131,-8.93951 -4.51554,-11.92144 -3.99631,-6.71652 -7.74252,-8.34249 -21.65024,-9.39686 -13.09824,-0.993 -113.04898,-1.07215 -127.13792,-0.10067 -9.9527,0.68626 -16.003,2.12649 -17.5175,4.16991 -0.39462,0.53243 -1.52523,1.85571 -2.51247,2.94061 -2.674455,2.93903 -5.216187,8.4113 -6.702663,14.43062 -0.727518,2.94602 -1.558614,5.89639 -1.846884,6.55639 -1.154412,2.64307 -2.315304,21.5235 -2.30574,37.50001 0.0098,16.39933 1.10766,33.00974 2.326812,35.20456 0.334662,0.60249 1.03569,3.12044 1.55784,5.59544 2.46321,11.67562 7.336705,18.77455 14.383065,20.95095 3.63275,1.12204 17.36637,2.07027 38.71754,2.67321 12.99015,0.36684 88.28707,-0.27848 97.8,-0.83818 z M 166.2,185.93003 c 0,-34.469 0.0137,-34.86641 1.1892,-34.559 1.22707,0.32088 6.39458,3.6012 24.18276,15.35114 5.68042,3.75219 10.73305,6.97633 11.22805,7.16476 0.495,0.18843 4.15146,2.51846 8.12548,5.17784 3.97401,2.65938 7.75401,5.13466 8.4,5.50063 1.86315,1.05552 1.39352,2.62847 -1.22548,4.10456 -1.32,0.74396 -6.51517,4.09257 -11.54482,7.44135 -5.02965,3.34878 -9.29911,6.0887 -9.48769,6.0887 -0.18859,0 -3.76842,2.26183 -7.95519,5.0263 -4.18677,2.76446 -8.48981,5.4714 -9.56231,6.01541 -1.0725,0.544 -1.95,1.25217 -1.95,1.57369 0,0.32153 -0.26724,0.5846 -0.59386,0.5846 -0.32663,0 -2.48939,1.215 -4.80614,2.7 -2.31675,1.485 -4.61451,2.7 -5.10613,2.7 -0.78156,0 -0.89387,-4.38085 -0.89387,-34.86998 z"
       id="path6509"
       inkscape:connector-curvature="0" />
    <path
       style="fill-opacity:1;fill:#ffffff"
       d="m 170.4,363.25332 c -1.155,-0.13293 -5.07,-0.53688 -8.7,-0.89764 -18.70012,-1.85853 -39.75409,-7.87331 -57.86863,-16.53216 C 52.483318,321.27888 15.659697,274.58216 3.961536,219.17673 1.165535,205.93417 0.37554287,197.7001 0.37554287,181.8 c 0,-29.68239 5.43091213,-53.38492 18.21567113,-79.5 C 45.894229,46.52889 97.513017,9.6750627 159.9,1.4109641 c 10.74092,-1.42279702 33.64234,-1.42407523 44.40001,-0.00248 20.68108,2.7329514 38.31024,7.8793948 56.06863,16.3680029 49.26052,23.546794 85.35571,67.630585 98.38408,120.158503 3.91013,15.76491 5.11689,26.10996 5.11689,43.86502 0,14.28693 -0.40507,19.47131 -2.46117,31.5 -4.24366,24.8264 -14.21604,49.27272 -28.88142,70.8 -17.53539,25.74014 -41.55986,46.61136 -69.42701,60.31459 -19.53822,9.60761 -37.19243,14.99007 -58.2,17.74418 -6.36416,0.83434 -30.19258,1.59032 -34.50001,1.09454 z m 76.20001,-112.4635 c 10.30103,-0.61005 15.43652,-1.38124 18.01889,-2.7059 1.93311,-0.99161 6.78394,-6.15758 7.92475,-8.43959 0.4796,-0.95938 1.48406,-3.63432 2.23214,-5.94432 0.74806,-2.31 1.59674,-4.66435 1.88594,-5.23188 0.92146,-1.80832 2.3377,-11.26658 2.94228,-19.64985 0.76168,-10.56174 0.75681,-35.37208 -0.009,-45.40948 -0.60752,-7.96355 -2.08087,-17.82181 -2.84642,-19.04553 -0.22821,-0.3648 -0.46849,-1.01683 -0.53395,-1.44897 -0.28195,-1.86123 -3.52691,-10.16764 -4.61534,-11.8143 -3.61407,-5.46762 -7.20941,-7.79236 -13.42292,-8.67922 -9.06862,-1.29438 -44.79331,-1.95884 -86.57647,-1.61027 -57.80569,0.48222 -62.07681,0.85463 -67.53819,5.88876 -2.77101,2.55423 -6.314763,9.16371 -7.621161,14.2143 -0.396414,1.53254 -0.962316,2.95875 -1.25757,3.16935 -0.295248,0.2106 -0.36282,0.66445 -0.150156,1.00854 0.212658,0.3441 0.1527,0.77022 -0.133242,0.94694 -0.6024,0.3723 -1.660902,7.875 -2.505864,17.7616 -0.766884,8.973 -0.758784,37.36504 0.0132,46.20001 0.699558,8.00626 1.72974,14.41876 2.466858,15.3552 0.283656,0.36036 0.337674,0.83327 0.120042,1.05091 -0.217632,0.21763 -0.107628,1.00279 0.244458,1.74479 0.352086,0.742 1.235208,3.2391 1.962492,5.5491 0.72729,2.31 1.946892,5.28928 2.710236,6.62064 1.958857,3.41647 6.908527,7.85536 9.659677,8.66284 3.39252,0.99574 13.52573,1.79195 30.22925,2.37524 18.10874,0.63237 93.27698,0.23196 106.8,-0.56891 z M 166.2,186.00001 c 0,-29.02292 0.13612,-34.80001 0.81993,-34.80001 0.45096,0 3.37791,1.72229 6.50433,3.82731 3.12642,2.10501 6.87495,4.50516 8.33007,5.33365 1.45512,0.82849 6.88534,4.3037 12.06716,7.7227 5.18181,3.41899 12.20181,8.01561 15.6,10.21471 11.30656,7.31692 12.55545,8.45684 10.22852,9.33602 -0.5775,0.21819 -4.695,2.76414 -9.15,5.65767 -4.455,2.89352 -12.62343,8.17403 -18.15206,11.73445 -5.52864,3.56042 -13.27274,8.566 -17.20911,11.1235 -3.93638,2.5575 -7.58045,4.65 -8.09794,4.65 -0.84371,0 -0.9409,-3.59445 -0.9409,-34.8 z"
       id="path6507"
       inkscape:connector-curvature="0" />
    <path
       style="fill-opacity:1;fill:#ffffff"
       d="m 171.9,363.24743 c -1.32,-0.13198 -5.505,-0.5358 -9.3,-0.89738 C 134.69331,359.6912 106.09512,349.43525 81.900002,333.40921 36.408677,303.27729 7.1816198,255.35388 1.1475851,201.00001 0.16270049,192.12829 0.16270049,171.47172 1.1475851,162.6 7.1792834,108.26718 36.426291,60.31106 81.900002,30.190798 105.35213,14.656898 131.08199,5.2418232 160.5,1.4294774 c 10.63892,-1.37872037 32.56109,-1.37872037 43.20001,0 29.41801,3.8123458 55.14787,13.2274206 78.6,28.7613206 62.40566,41.335414 92.97055,115.395802 77.92198,188.809212 -5.21629,25.4473 -16.91883,51.13977 -32.89629,72.22251 -29.99124,39.57434 -74.15436,64.96616 -123.32569,70.90676 -7.37523,0.89103 -27.39651,1.58844 -32.10001,1.11815 z m 68.37001,-111.88169 c 0.3135,-0.31115 2.6085,-0.56795 5.1,-0.57065 6.32495,-0.007 14.86286,-1.02365 17.81722,-2.12184 3.93049,-1.46103 11.01278,-9.79551 11.01278,-12.95991 0,-0.40395 0.51607,-1.83221 1.14683,-3.1739 0.63075,-1.34169 1.55368,-4.32943 2.05095,-6.63943 2.1538,-10.00515 2.4892,-15.39894 2.48118,-39.9 -0.007,-20.16146 -0.1897,-25.52624 -1.075,-31.50001 -0.97207,-6.5592 -1.78316,-10.47702 -2.67067,-12.9 -0.1813,-0.495 -0.37738,-1.035 -0.43571,-1.2 -0.0583,-0.165 -0.55415,-1.30383 -1.10182,-2.53072 -0.54767,-1.22691 -0.99576,-2.58173 -0.99576,-3.01073 0,-1.01767 -2.66708,-5.02496 -5.03236,-7.56112 -2.58978,-2.77689 -5.61552,-4.19532 -10.39042,-4.87091 -7.8915,-1.11654 -39.87659,-1.83976 -77.27723,-1.74731 -53.52925,0.13231 -68.2546,0.84481 -73.57692,3.56005 -3.18164,1.62314 -6.67538,5.91657 -8.606415,10.57636 -0.930924,2.24641 -2.029098,4.89438 -2.440386,5.88438 -1.892052,4.55429 -2.41023,7.50194 -3.586194,20.4 -1.02825,11.27796 -1.173228,38.50399 -0.261444,49.09675 0.639546,7.43004 2.6817,19.37521 3.502884,20.48949 0.248778,0.33757 0.819348,1.82877 1.267932,3.31377 1.947078,6.44565 6.588553,12.43806 11.242563,14.51478 2.72288,1.21501 11.55396,2.23098 19.68798,2.26501 2.6565,0.0111 5.09337,0.28357 5.41526,0.60546 0.84553,0.84554 16.01856,1.02918 63.85475,0.77287 25.36124,-0.13589 42.52825,-0.4532 42.87,-0.79239 z M 166.2,185.95957 l 0,-34.84043 1.35,0.42316 c 0.7425,0.23274 6.1283,3.55844 11.96844,7.39043 20.52425,13.46695 25.34446,16.57106 26.37762,16.98659 0.57341,0.23062 1.60717,0.9839 2.29722,1.67396 0.69005,0.69005 1.86955,1.48843 2.62109,1.77416 1.54763,0.58841 9.18669,5.82527 9.69345,6.64521 0.28579,0.46241 -15.33591,11.38736 -16.28292,11.38736 -0.19078,0 -4.69718,2.9025 -10.01421,6.45 -5.31704,3.5475 -10.12013,6.63289 -10.67354,6.85644 -0.55341,0.22355 -4.24329,2.58605 -8.19972,5.25 -3.95644,2.66395 -7.6309,4.84356 -8.16547,4.84356 -0.88478,0 -0.97196,-3.12488 -0.97196,-34.84044 z"
       id="path6505"
       inkscape:connector-curvature="0" />
    <path
       style="fill-opacity:1;fill:#ffffff"
       d="M 170.4,362.99482 C 111.69917,359.17977 59.21442,327.75393 27.454959,277.40487 22.63793,269.76831 15.537647,255.51693 12.101971,246.58903 -3.5530506,205.90809 -3.5882932,158.56526 12.00595,117.6 21.356772,93.035889 34.020329,73.453472 52.800001,54.517722 66.70949,40.492629 79.159526,31.03333 95.100003,22.378984 122.43381,7.5390098 150.53791,0.45763362 182.1,0.45763362 c 33.95467,0 64.08607,8.22628778 93.34553,25.48461138 13.33218,7.863818 25.59922,17.697192 37.78744,30.290761 24.03069,24.829894 40.26552,55.617964 47.08328,89.289744 4.68553,23.14103 4.68553,49.41348 0,72.55451 -9.51668,47.00128 -37.53569,88.41625 -78.01624,115.31603 -19.14375,12.72124 -41.61869,21.92907 -64.89602,26.58747 -13.39902,2.68149 -32.8902,3.93133 -47.00399,3.01406 z m 75.88604,-111.61925 c 5.93231,-0.3342 11.04881,-0.87041 11.37,-1.1916 0.32118,-0.32118 1.27247,-0.58989 2.11397,-0.59714 6.50322,-0.056 14.76648,-10.26138 17.18865,-21.2285 2.50748,-11.35338 2.88903,-16.8809 2.90319,-42.05832 0.0115,-20.5113 -0.16248,-25.77443 -1.047,-31.66605 -1.20518,-8.0275 -3.08747,-16.05032 -3.88953,-16.57819 -0.2973,-0.19567 -0.73623,-1.16577 -0.9754,-2.15577 -1.06857,-4.42308 -6.11978,-10.27714 -10.54991,-12.22674 -3.13055,-1.37767 -16.02644,-2.47326 -29.11232,-2.47326 -4.79687,0 -8.16863,-0.24556 -8.39472,-0.61138 -0.45856,-0.74196 -83.69297,-0.79696 -83.69297,-0.0553 0,0.26735 -5.7375,0.6705 -12.75,0.89589 -13.52422,0.43468 -18.62279,1.08446 -22.09092,2.81537 -3.10195,1.54814 -6.45624,5.54774 -8.464173,10.0925 -0.962976,2.17961 -2.012334,4.50291 -2.331912,5.16291 -1.742118,3.59788 -2.737986,9.15206 -3.87291,21.6 -1.1292,12.3852 -1.140414,39.76731 -0.021,51.30001 0.788838,8.12704 3.082914,20.32243 3.95031,21 0.21123,0.165 0.70128,1.2264 1.089,2.35866 2.004,5.85228 7.698745,12.05482 12.165915,13.25074 1.44413,0.38661 3.06994,0.9323 3.6129,1.21263 0.93321,0.48182 20.60301,1.60449 35.0128,1.99838 13.70459,0.37462 87.44896,-0.26252 97.78603,-0.84485 z M 166.8,186.02477 l 0,-34.77525 3,1.50682 c 1.65,0.82875 3,1.71698 3,1.97385 0,0.25687 0.7425,0.83713 1.65,1.28947 0.9075,0.45233 4.82286,2.92796 8.70079,5.50139 3.87793,2.57342 7.21086,4.67895 7.4065,4.67895 0.19564,0 4.81154,2.98855 10.25754,6.64122 5.44602,3.65267 10.3481,6.80873 10.89351,7.01346 1.09916,0.41261 9.09167,6.10495 9.09167,6.47518 0,0.37714 -8.89554,6.27015 -9.46484,6.27015 -0.28547,0 -1.42629,0.81 -2.53516,1.8 -1.10888,0.99 -2.2596,1.8 -2.55718,1.8 -0.29758,0 -4.00685,2.295 -8.24282,5.1 -4.23598,2.805 -7.85711,5.1 -8.04696,5.1 -0.18986,0 -4.73446,2.93158 -10.09912,6.51463 -9.4074,6.2832 -11.99076,7.88537 -12.71448,7.88537 -0.1867,0 -0.33945,-15.64886 -0.33945,-34.77524 z"
       id="path6503"
       inkscape:connector-curvature="0" />
    <path
       style="fill-opacity:1;fill:#ffffff"
       d="M 176.4,363.19342 C 119.66622,361.20884 68.338754,333.9702 34.708358,288.00001 20.148038,268.09716 8.8544354,242.32356 3.923967,217.74566 -0.6072413,195.15805 -0.62248388,168.3783 3.883202,146.12549 7.1617304,129.93341 11.510699,117.30745 19.185412,101.7 28.234161,83.298296 39.048504,68.226722 53.646856,53.672287 68.239046,39.123996 83.069744,28.426761 100.87717,19.605523 127.69655,6.3200462 152.38213,0.51927529 182.1,0.51927529 c 29.17389,0 54.23402,5.81852131 80.40001,18.66746571 56.36989,27.680727 94.2624,82.304339 100.52662,144.913259 1.37431,13.7358 0.70207,33.75268 -1.60196,47.70001 -8.50826,51.50448 -40.27361,98.2358 -85.12466,125.23044 -20.88391,12.56946 -44.33853,20.97926 -68.1,24.4177 -8.13149,1.17667 -23.6722,2.02959 -31.80001,1.74527 z m 70.20001,-111.81305 c 10.77954,-0.64126 13.70279,-1.02159 14.85,-1.93206 0.4125,-0.32738 0.75,-0.42967 0.75,-0.22732 0,0.6099 5.64072,-3.05751 6.98351,-4.54044 1.73079,-1.91142 5.17158,-8.03357 6.33992,-11.28054 1.15364,-3.20608 2.50334,-9.65189 3.58061,-17.1 1.07537,-7.435 1.09555,-51.77875 0.0272,-59.70001 -1.80051,-13.34934 -3.80176,-19.88537 -8.02003,-26.19313 -2.45093,-3.66498 -3.41469,-4.56482 -6.58692,-6.15 -2.35839,-1.17849 -4.62348,-1.85687 -6.2001,-1.85687 -1.3663,0 -2.74067,-0.25504 -3.05417,-0.56676 -2.29791,-2.28483 -134.65201,-2.33656 -139.77001,-0.0547 -0.66,0.29427 -2.26744,0.71201 -3.57209,0.92831 -1.30465,0.2163 -3.32965,0.88707 -4.5,1.49061 -6.03349,3.11137 -11.436187,13.02805 -13.490161,24.76126 -1.968078,11.24251 -2.826156,46.68826 -1.496994,61.83797 1.570878,17.90474 5.716014,30.18226 11.805775,34.96763 2.99471,2.35325 5.55347,3.95481 5.55347,3.47599 0,-0.21302 0.39617,-0.0585 0.88037,0.34334 1.14166,0.9475 10.81162,1.7359 29.11963,2.37416 18.13329,0.63217 93.29771,0.22573 106.80001,-0.57751 z M 166.8,185.96459 c 0,-27.49688 0.15617,-34.73889 0.74128,-34.37727 0.4077,0.25197 2.6352,1.69215 4.95,3.20039 2.3148,1.50824 5.25088,3.27551 6.52462,3.92728 1.27374,0.65176 2.45012,1.52251 2.61419,1.93501 0.16406,0.4125 0.54613,0.75 0.84903,0.75 0.3029,0 3.71651,2.1152 7.58581,4.70044 3.86929,2.58524 8.58187,5.57179 10.4724,6.63678 1.89053,1.06499 3.57392,2.15736 3.74087,2.42749 0.16695,0.27013 2.87265,2.04552 6.01267,3.9453 3.14003,1.89978 5.70914,3.6447 5.70914,3.87759 0,0.23289 0.945,0.93236 2.1,1.55436 1.9358,1.0425 2.86628,2.65805 1.53091,2.65805 -0.313,0 -1.2348,0.61695 -2.04844,1.37101 -0.81365,0.75407 -2.24505,1.75641 -3.18092,2.22744 -0.93585,0.47104 -5.12196,3.09408 -9.30244,5.82899 -4.18049,2.7349 -7.8641,4.97256 -8.18581,4.97256 -0.3217,0 -0.7469,0.42211 -0.94487,0.93802 -0.19798,0.51592 -0.63186,0.76998 -0.9642,0.5646 -0.33233,-0.20539 -0.60423,-0.0817 -0.60423,0.27483 0,0.35655 -0.7425,0.97103 -1.65,1.36551 -0.9075,0.39448 -4.755,2.75663 -8.55,5.24922 -3.79501,2.49259 -7.63795,4.90723 -8.53988,5.36586 -0.90193,0.45864 -2.18443,1.34123 -2.85,1.9613 -0.66557,0.62007 -1.21426,0.91438 -1.21931,0.65403 -0.005,-0.26036 -0.20755,-0.19714 -0.45,0.14049 -0.47964,0.66791 -3.49983,2.68614 -4.01971,2.68614 -0.17661,0 -0.32111,-15.67594 -0.32111,-34.83542 z"
       id="path6501"
       inkscape:connector-curvature="0" />
  </g>
</svg>
