<?xml version="1.0" encoding="UTF-8" standalone="no"?>
<!-- Created with Inkscape (http://www.inkscape.org/) -->

<svg
   xmlns:dc="http://purl.org/dc/elements/1.1/"
   xmlns:cc="http://creativecommons.org/ns#"
   xmlns:rdf="http://www.w3.org/1999/02/22-rdf-syntax-ns#"
   xmlns:svg="http://www.w3.org/2000/svg"
   xmlns="http://www.w3.org/2000/svg"
   xmlns:sodipodi="http://sodipodi.sourceforge.net/DTD/sodipodi-0.dtd"
   xmlns:inkscape="http://www.inkscape.org/namespaces/inkscape"
   id="svg4136"
   version="1.1"
   inkscape:version="0.91 r13725"
   width="185.625"
   height="185.625"
   viewBox="0 0 185.625 185.625"
   sodipodi:docname="Ficha.svg">
  <metadata
     id="metadata4142">
    <rdf:RDF>
      <cc:Work
         rdf:about="">
        <dc:format>image/svg+xml</dc:format>
        <dc:type
           rdf:resource="http://purl.org/dc/dcmitype/StillImage" />
        <dc:title></dc:title>
      </cc:Work>
    </rdf:RDF>
  </metadata>
  <defs
     id="defs4140" />
  <sodipodi:namedview
     pagecolor="#ffffff"
     bordercolor="#666666"
     borderopacity="1"
     objecttolerance="10"
     gridtolerance="10"
     guidetolerance="10"
     inkscape:pageopacity="0"
     inkscape:pageshadow="2"
     inkscape:window-width="1366"
     inkscape:window-height="749"
     id="namedview4138"
     showgrid="false"
     inkscape:zoom="3.0922559"
     inkscape:cx="88.285061"
     inkscape:cy="92.8125"
     inkscape:window-x="-4"
     inkscape:window-y="-4"
     inkscape:window-maximized="1"
     inkscape:current-layer="svg4136" />
  <path
     style="fill:#ffffff;fill-opacity:1"
     d="M 85.954016,183.37271 C 54.360466,180.7432 25.881506,159.39436 11.994586,131.28792 3.2301758,112.20857 1.5052958,89.938154 6.5758158,69.623032 15.752126,39.471149 39.014346,14.444757 67.080706,0.68676852 c -0.97407,3.82418608 5.74952,3.56972768 9.62078,1.09623678 3.98573,3.1475147 -11.31897,12.1530857 -2.138,8.9749767 -3.25657,2.756376 -6.40098,8.120133 0.0838,4.231729 3.65789,-2.085616 7.63515,-5.068195 2.3388,0.239265 -5.74757,7.306666 8.84638,-2.811569 10.39612,-5.735975 1.8462,-1.0704682 5.22368,6.628319 5.35089,1.045189 -0.92786,-5.9720132 8.369124,-8.3853342 3.88626,-1.187935 -1.43304,3.079894 0.16489,6.69151 -0.94281,9.918558 4.911984,1.679149 1.08085,-7.338284 6.165204,-1.547902 -1.19323,8.931088 -12.431174,12.01656 -19.526794,15.91541 -14.26838,6.410465 -29.61077,13.883304 -36.75104,28.712246 -8.09767,14.192809 -9.09983,31.511884 -6.41638,47.335063 6.82316,27.60378 34.18765,48.92651 62.837604,47.41104 13.33051,-0.26366 28.30355,0.49463 39.57456,-7.83986 7.13735,-7.46788 8.86677,-18.31008 12.99062,-27.51372 0.71805,-8.01475 11.30889,-15.12588 9.14321,-22.143184 -2.03469,-4.658167 1.59622,-15.56593 -1.65896,-17.040401 -1.7675,3.261729 -1.52513,8.279452 -3.20637,1.400759 -6.04937,-18.610452 -25.09557,-31.122394 -44.4454,-30.716451 -16.649504,-0.741442 -33.139124,2.065411 -49.673194,3.386421 0.0162,-6.014637 11.81775,-1.839235 16.85675,-3.897888 5.02939,-5.565381 13.64645,-3.755184 20.237084,-6.896104 4.68095,-1.007444 -2.373874,-3.047205 -3.781114,-4.590181 -5.83059,-1.993746 4.629294,-7.294433 7.292544,-4.430345 7.02524,1.762289 17.35892,8.533652 22.99377,2.636786 -0.55536,-2.291052 -12.76096,-5.8308 -5.404,-4.779779 16.6779,0.808224 32.88335,8.897726 42.57964,22.670735 12.11739,15.132346 17.76441,34.919609 15.52831,54.160742 -2.0765,17.52612 -10.0489,34.11511 -20.46943,48.19375 -5.44422,6.09744 -14.26599,15.01757 -23.05436,10.36471 -8.92808,-3.10015 1.5957,6.9832 -6.73801,5.48342 -3.65089,-1.9813 -13.49881,-1.1219 -14.33244,1.51155 3.71321,0.88429 14.00139,1.87069 4.42061,3.74692 -11.37127,2.67678 -23.246124,3.49413 -34.884954,2.57016 z m -15.31813,-41.2341 c -1.61986,-1.24593 9.33798,-1.7441 12.12678,-4.33453 9.54284,1.44631 11.75814,-6.70154 11.85851,-14.76132 2.03346,-10.26568 4.87761,-21.55447 13.186084,-28.593866 2.05477,-1.358903 12.35299,-3.530952 10.92562,-1.072025 -3.48956,7.317141 -12.57282,6.722791 -17.32495,11.591661 -1.669014,5.15112 7.46128,-5.570624 11.15395,-1.75381 6.11229,-0.23681 0.14957,3.49827 -1.70192,5.64579 -5.2509,4.99854 -15.225844,1.32313 -13.106914,11.89932 -0.44264,4.62278 -0.76768,9.25567 -1.14377,13.88412 5.977824,-1.16875 9.350484,4.79652 14.856984,5.90309 4.59346,0.88469 -7.95009,0.13446 -5.85163,1.36248 -8.306104,-3.78655 -19.242064,1.93483 -28.657234,0.67065 -2.10818,-0.0201 -4.25475,0.051 -6.32151,-0.44156 z m 15.04656,-1.42498 c 8.3982,-4.94908 -8.62146,2.69609 -1.78114,0.83983 l 1.78114,-0.83983 z m 7.79754,-31.16865 c -4.89031,-3.36061 -4.32453,-12.999133 -6.45667,-16.040239 6.07558,3.460343 14.049774,9.317869 9.701,17.247329 -0.99663,1.47602 -2.40964,-1.28865 -3.24433,-1.20709 z m 2.50722,-11.639015 c -4.42499,-3.269341 -6.50073,-19.278537 0.74269,-10.281028 5.343414,1.615954 6.067414,21.238753 -0.74269,10.281028 z m 4.648684,-9.447249 C 97.366476,84.55751 96.730286,76.312933 97.680186,73.068507 c 5.414624,3.550892 6.674224,13.897912 8.463624,15.616807 1.84149,-5.419352 19.14554,-11.884612 10.92547,-1.789824 -4.59767,3.096283 -13.90561,10.777511 -16.43339,1.563226 z m 6.5962,-9.827694 c -2.52418,-5.918309 12.0387,-18.4158 7.06275,-6.316058 -0.54304,2.180288 -7.34331,14.823142 -7.04651,8.683488 -0.005,-0.789136 -0.0108,-1.578327 -0.0162,-2.36743 z M 50.117636,71.841934 c 5.04595,-9.928206 0.69569,9.08354 -1.14311,2.101614 l 0.47882,-0.908315 0.66429,-1.193299 z m 31.76825,-30.947988 c -5.16144,-2.774404 11.80132,1.534751 2.20606,0.553345 l -1.14807,-0.25566 -1.05799,-0.297685 z"
     id="path5938"
     inkscape:connector-curvature="0" />
</svg>
